<?xml version="1.0" encoding="utf-8"?>
<!-- Generator: Adobe Illustrator 16.0.3, SVG Export Plug-In . SVG Version: 6.00 Build 0)  -->
<!DOCTYPE svg PUBLIC "-//W3C//DTD SVG 1.1//EN" "http://www.w3.org/Graphics/SVG/1.1/DTD/svg11.dtd">
<svg version="1.1" id="Layer_1" xmlns="http://www.w3.org/2000/svg" xmlns:xlink="http://www.w3.org/1999/xlink" x="0px" y="0px"
	 width="518.327px" height="546px" viewBox="39.836 121 518.327 546" enable-background="new 39.836 121 518.327 546"
	 xml:space="preserve">
<ellipse fill="#B0DED3" stroke="#B0DED3" stroke-miterlimit="10" cx="299" cy="394" rx="230.724" ry="243.283"/>
<ellipse fill="none" stroke="#000000" stroke-width="10" stroke-miterlimit="10" cx="299" cy="394" rx="254.163" ry="268"/>
<polygon stroke="#000000" stroke-miterlimit="10" points="181.198,198.709 247.396,207.695 332.832,306.667 332.832,310.5 
	246.333,409 173.333,417.667 213.667,366 199.333,350.333 155.667,391 155.667,226.667 201,266.333 218,249.667 "/>
<polygon fill="#FFFFFF" stroke="#FFFFFF" stroke-miterlimit="10" points="465.854,523.479 388.234,512.942 288.058,396.896 
	288.058,392.401 389.479,276.909 475.073,266.747 427.781,327.327 444.588,345.696 495.789,298.014 495.789,490.697 
	442.634,444.189 422.701,463.73 "/>
<image overflow="visible" width="554" height="756" xlink:href="E6229144.png"  transform="matrix(0.24 0 0 0.24 154.637 414.9355)">
</image>
<image overflow="visible" width="529" height="300" xlink:href="E6229145.png"  transform="matrix(0.24 0 0 0.24 131.0867 444)">
</image>
<image overflow="visible" width="494" height="300" xlink:href="E622914C.png"  transform="matrix(0.24 0 0 0.24 176.675 492.3535)">
</image>
</svg>
