<?xml version="1.0" encoding="utf-8"?>
<!-- Generator: Adobe Illustrator 16.0.0, SVG Export Plug-In . SVG Version: 6.00 Build 0)  -->
<!DOCTYPE svg PUBLIC "-//W3C//DTD SVG 1.1//EN" "http://www.w3.org/Graphics/SVG/1.1/DTD/svg11.dtd">
<svg version="1.1" id="Layer_1" xmlns="http://www.w3.org/2000/svg" xmlns:xlink="http://www.w3.org/1999/xlink" x="0px" y="0px"
	 width="612px" height="792px" viewBox="0 0 612 792" enable-background="new 0 0 612 792" xml:space="preserve">
<ellipse fill="#B0DED3" stroke="#B0DED3" stroke-miterlimit="10" cx="299" cy="394" rx="230.724" ry="243.283"/>
<ellipse fill="none" stroke="#000000" stroke-width="10" stroke-miterlimit="10" cx="299" cy="394" rx="254.164" ry="268"/>
<polygon stroke="#000000" stroke-miterlimit="10" points="181.198,198.709 247.396,207.695 332.833,306.667 332.833,310.5 
	246.333,409 173.333,417.667 213.667,366 199.333,350.333 155.667,391 155.667,226.667 201,266.333 218,249.667 "/>
<polygon fill="#FFFFFF" stroke="#FFFFFF" stroke-miterlimit="10" points="465.854,523.479 388.234,512.942 288.058,396.896 
	288.058,392.401 389.479,276.909 475.074,266.747 427.782,327.327 444.588,345.696 495.79,298.014 495.79,490.697 442.634,444.189 
	422.702,463.73 "/>
<text transform="matrix(1.3538 0 0 1 154.6372 545.1563)" fill="#8BD0BE" font-family="'FreestyleScript-Regular'" font-size="156.424">&amp;</text>
<text transform="matrix(1.2559 0 0 1 133.7339 495.6143)" stroke="#000000" stroke-miterlimit="10" font-family="'FreestyleScript-Regular'" font-size="62">Black</text>
<text transform="matrix(1.2581 0 0 1 176.6758 543.9678)" fill="#FFFFFF" stroke="#FFFFFF" stroke-miterlimit="10" font-family="'FreestyleScript-Regular'" font-size="62">White</text>
</svg>
